HIERARCHY
ROOT Hips
{
	OFFSET 0.000000 0.000000 0.000000
	CHANNELS 6 Xposition Yposition Zposition Xrotation Yrotation Zrotation
	JOINT LeftUpLeg_virtual
	{
		OFFSET 0.000000 0.000000 0.000000
		CHANNELS 3 Xrotation Yrotation Zrotation
		JOINT LeftUpLeg
		{
			OFFSET 10.205400 -3.823500 0.155100
			CHANNELS 3 Xrotation Yrotation Zrotation
			JOINT LeftLeg
			{
				OFFSET 0.708757 -12.982077 0.567790
				CHANNELS 3 Xrotation Yrotation Zrotation
				JOINT LeftFoot
				{
					OFFSET -0.708756 -10.717838 -2.184338
					CHANNELS 3 Xrotation Yrotation Zrotation
					JOINT LeftToeBase
					{
						OFFSET 0.108149 -7.191104 7.560241
						CHANNELS 3 Xrotation Yrotation Zrotation
						JOINT LeftToe_End
						{
							OFFSET 0.070230 0.081724 4.490308
							CHANNELS 3 Xrotation Yrotation Zrotation
							End Site
							{
								OFFSET 0 0 0
							}
						}
					}
				}
			}
		}
	}
	JOINT RightUpLeg_virtual
	{
		OFFSET 0.000000 0.000000 0.000000
		CHANNELS 3 Xrotation Yrotation Zrotation
		JOINT RightUpLeg
		{
			OFFSET -10.205400 -3.823500 0.005500
			CHANNELS 3 Xrotation Yrotation Zrotation
			JOINT RightLeg
			{
				OFFSET -0.708756 -12.982134 0.610632
				CHANNELS 3 Xrotation Yrotation Zrotation
				JOINT RightFoot
				{
					OFFSET 0.708754 -10.717769 -1.945823
					CHANNELS 3 Xrotation Yrotation Zrotation
					JOINT RightToeBase
					{
						OFFSET -0.108140 -7.191069 7.372968
						CHANNELS 3 Xrotation Yrotation Zrotation
						JOINT RightToe_End
						{
							OFFSET -0.070227 0.081735 4.479403
							CHANNELS 3 Xrotation Yrotation Zrotation
							End Site
							{
								OFFSET 0 0 0
							}
						}
					}
				}
			}
		}
	}
	JOINT Spine_virtual
	{
		OFFSET 0.000000 0.000000 0.000000
		CHANNELS 3 Xrotation Yrotation Zrotation
		JOINT Spine
		{
			OFFSET 0.000000 6.876099 0.125700
			CHANNELS 3 Xrotation Yrotation Zrotation
			JOINT Spine1
			{
				OFFSET 0.000000 5.730043 0.104720
				CHANNELS 3 Xrotation Yrotation Zrotation
				JOINT Spine1_split
				{
					OFFSET 0.000000 5.730043 0.104720
					CHANNELS 3 Xrotation Yrotation Zrotation
					JOINT Spine2
					{
						OFFSET 0.000000 5.730043 0.104720
						CHANNELS 3 Xrotation Yrotation Zrotation
						JOINT Neck_virtual
						{
							OFFSET 0.000000 0.000000 0.000000
							CHANNELS 3 Xrotation Yrotation Zrotation
							JOINT Neck
							{
								OFFSET 0.000000 10.314075 0.188496
								CHANNELS 3 Xrotation Yrotation Zrotation
								JOINT Head
								{
									OFFSET 0.000000 7.643700 -2.377400
									CHANNELS 3 Xrotation Yrotation Zrotation
									JOINT HeadTop_End
									{
										OFFSET 0.000000 43.788605 -13.619600
										CHANNELS 3 Xrotation Yrotation Zrotation
										End Site
										{
											OFFSET 0 0 0
										}
									}
								}
							}
						}
						JOINT LeftShoulder_virtual
						{
							OFFSET 0.000000 0.000000 0.000000
							CHANNELS 3 Xrotation Yrotation Zrotation
							JOINT LeftShoulder
							{
								OFFSET 2.196100 4.412489 0.087492
								CHANNELS 3 Xrotation Yrotation Zrotation
								JOINT LeftShoulder_split
								{
									OFFSET 2.196100 4.412489 0.087492
									CHANNELS 3 Xrotation Yrotation Zrotation
									JOINT LeftArm
									{
										OFFSET 8.771219 -2.981674 -0.026999
										CHANNELS 3 Xrotation Yrotation Zrotation
										JOINT LeftForeArm
										{
											OFFSET 8.512804 0.000000 -0.000000
											CHANNELS 3 Xrotation Yrotation Zrotation
											JOINT LeftHand
											{
												OFFSET 18.484802 0.000000 -0.000000
												CHANNELS 3 Xrotation Yrotation Zrotation
												End Site
												{
													OFFSET 0 0 0
												}
											}
										}
									}
								}
							}
						}
						JOINT RightShoulder_virtual
						{
							OFFSET 0.000000 0.000000 0.000000
							CHANNELS 3 Xrotation Yrotation Zrotation
							JOINT RightShoulder
							{
								OFFSET -2.196100 4.412496 0.070690
								CHANNELS 3 Xrotation Yrotation Zrotation
								JOINT RightShoulder_split
								{
									OFFSET -2.196100 4.412496 0.070690
									CHANNELS 3 Xrotation Yrotation Zrotation
									JOINT RightArm
									{
										OFFSET -8.771282 -2.981682 -0.094208
										CHANNELS 3 Xrotation Yrotation Zrotation
										JOINT RightForeArm
										{
											OFFSET -8.494598 0.000000 0.000000
											CHANNELS 3 Xrotation Yrotation Zrotation
											JOINT RightHand
											{
												OFFSET -18.483803 0.000000 0.000001
												CHANNELS 3 Xrotation Yrotation Zrotation
												End Site
												{
													OFFSET 0 0 0
												}
											}
										}
									}
								}
							}
						}
					}
				}
			}
		}
	}
}
MOTION
Frames: 7
Frame Time: 0.03333333
0.633360 28.598579 -0.651480 0.000000 0.000000 0.000000 9.498625 -61.495581 10.123694 -41.998147 3.740778 34.587436 44.708461 -12.167223 0.011671 -7.403613 0.866827 -25.254949 -1.836430 -0.000606 -0.000033 0.000000 0.000000 0.000000 9.498625 -61.495581 10.123694 -27.932076 -15.142642 -45.127804 44.468838 11.515031 -2.764036 -21.027506 -6.257981 32.367809 -0.001678 -0.000462 -0.000007 0.000000 0.000000 0.000000 9.498625 -61.495581 10.123694 15.063998 -0.448765 -4.270516 5.872399 0.563935 -2.798214 0.000000 0.000000 0.000000 0.000000 0.000000 0.000000 5.868714 0.648184 -2.860162 -3.632892 1.437145 3.747496 -20.005959 54.836782 2.407379 0.000000 0.000000 0.000000 5.868714 0.648184 -2.860162 1.828098 -3.192677 -12.271607 0.000000 0.000000 0.000000 -39.387423 26.350489 -34.911108 0.429387 -46.808448 0.416229 0.000000 0.000000 0.000000 5.868714 0.648184 -2.860162 0.632604 7.257361 8.700334 0.000000 0.000000 0.000000 7.936008 -9.680154 53.429899 -22.867437 36.194706 17.955461 0.000000 0.000000 0.000000 
0.466765 27.963615 -1.050602 0.000000 0.000000 0.000000 8.501778 -43.250079 6.037690 -57.760178 -4.277706 26.248291 40.801798 -15.728457 0.488699 6.106761 -7.083358 -23.267357 -1.836422 -0.000657 -0.000193 0.000000 0.000000 0.000000 8.501778 -43.250079 6.037690 -11.895714 -24.093900 -41.980463 42.095955 4.397615 2.449614 -24.874637 -10.103414 36.389814 -2.695830 0.001367 -0.047464 0.000000 0.000000 0.000000 8.501778 -43.250079 6.037690 19.043616 -0.523127 -1.746694 8.434702 -1.248267 0.996152 0.000000 0.000000 0.000000 0.000000 0.000000 0.000000 8.432943 -1.053496 0.978030 -4.999485 -0.762672 5.645552 -37.843264 41.961032 5.245533 0.000000 0.000000 0.000000 8.432943 -1.053496 0.978030 3.416888 -8.568160 -4.408983 0.000000 0.000000 0.000000 -14.803042 11.945504 -33.781743 -16.458852 -59.708844 -14.596258 0.000000 0.000000 0.000000 8.432943 -1.053496 0.978030 2.138322 11.266876 6.137829 0.000000 0.000000 0.000000 17.411428 3.777416 45.935935 -16.048081 34.606796 15.226657 0.000000 0.000000 0.000000 
-0.565963 27.186741 -0.867111 0.000000 0.000000 0.000000 -1.025732 -18.710617 4.470458 -53.303565 6.946097 8.406114 12.934941 -23.996744 -0.751982 30.199927 -20.597144 -20.272148 -1.837230 -0.001054 -0.000659 0.000000 0.000000 0.000000 -1.025732 -18.710617 4.470458 22.840909 -32.766695 -28.807095 37.087955 -8.195850 1.755086 -27.736584 -14.618808 38.052367 -13.686953 -2.216806 9.761817 0.000000 0.000000 0.000000 -1.025732 -18.710617 4.470458 16.776860 2.699460 -2.002316 5.284545 2.633935 2.560244 0.000000 0.000000 0.000000 0.000000 0.000000 0.000000 5.269078 2.814638 2.432387 37.491380 -0.604654 24.738074 -18.056894 27.309682 9.709664 0.000000 0.000000 0.000000 5.269078 2.814638 2.432387 0.907816 -6.380208 -5.024942 0.000000 0.000000 0.000000 -28.312114 3.762128 -48.592930 23.186785 -54.716529 21.547966 0.000000 0.000000 0.000000 5.269078 2.814638 2.432387 -0.419575 12.460909 21.415915 0.000000 0.000000 0.000000 25.186324 -1.964545 37.765199 1.735756 22.440344 11.670346 0.000000 0.000000 0.000000 
-2.193971 27.250324 0.819626 0.000000 0.000000 0.000000 -10.516968 4.260765 6.720682 -35.155496 18.001723 -6.622728 -7.709989 -36.124389 -3.334500 44.271637 -26.733640 -17.698907 -1.653588 -0.002916 0.360856 0.000000 0.000000 0.000000 -10.516968 4.260765 6.720682 48.331996 -24.170113 -12.373502 34.292075 -7.846382 -0.395556 -11.209518 -7.949649 29.737428 -31.522829 -10.523575 18.556309 0.000000 0.000000 0.000000 -10.516968 4.260765 6.720682 13.998809 6.842964 0.871982 2.426409 6.383992 4.898219 0.000000 0.000000 0.000000 0.000000 0.000000 0.000000 2.425245 6.512639 4.753643 52.582693 10.442628 29.673630 -10.231403 21.148870 13.059930 0.000000 0.000000 0.000000 2.425245 6.512639 4.753643 -0.025272 1.544063 -0.983365 0.000000 0.000000 0.000000 -28.761387 1.244522 -58.580866 5.753670 -54.835067 5.399384 0.000000 0.000000 0.000000 2.425245 6.512639 4.753643 -0.664136 12.856043 29.813141 0.000000 0.000000 0.000000 17.200945 -11.687441 27.402917 52.867221 12.958506 -8.573393 0.000000 0.000000 0.000000 
-3.151657 28.292564 1.885633 0.000000 0.000000 0.000000 -13.985341 18.707413 10.459655 -29.310282 13.720948 -12.795127 -7.518774 -32.645944 -4.953626 52.238865 -17.997316 -12.297389 -2.881237 -0.138159 3.602252 0.000000 0.000000 0.000000 -13.985341 18.707413 10.459655 47.432775 -11.586096 -1.934554 33.997297 -2.618941 -0.517317 4.555086 -0.931203 11.226563 -61.456396 -5.205097 3.608619 0.000000 0.000000 0.000000 -13.985341 18.707413 10.459655 12.609973 7.519716 2.443282 -0.481214 7.717567 5.754066 0.000000 0.000000 0.000000 0.000000 0.000000 0.000000 -0.445487 7.827162 5.612241 45.610094 11.027334 13.812514 -7.259270 18.757569 8.974895 0.000000 0.000000 0.000000 -0.445487 7.827162 5.612241 -0.236333 5.907990 -1.207490 0.000000 0.000000 0.000000 -23.464399 -4.177147 -39.116517 -1.279262 -54.708920 -1.666769 0.000000 0.000000 0.000000 -0.445487 7.827162 5.612241 -1.160292 14.525114 29.542720 0.000000 0.000000 0.000000 21.154829 -18.031022 20.345320 55.533160 12.707932 -10.210308 0.000000 0.000000 0.000000 
-4.047266 28.931473 1.802675 0.000000 0.000000 0.000000 -14.534690 25.380370 13.332925 -30.866489 10.593131 -16.289048 2.469622 -27.592311 -3.071903 50.594346 -7.104873 -6.937456 -6.897562 -0.672573 5.120168 0.000000 0.000000 0.000000 -14.534690 25.380370 13.332925 46.293499 -8.902833 -0.017327 34.068772 -2.750878 0.324448 9.298445 -0.134192 12.221357 -58.491377 4.439179 -3.634450 0.000000 0.000000 0.000000 -14.534690 25.380370 13.332925 11.779476 8.008203 2.571518 -2.629117 9.068183 4.911467 0.000000 0.000000 0.000000 0.000000 0.000000 0.000000 -2.535123 9.165098 4.761499 40.637057 13.134797 1.347097 -8.859037 18.022357 5.549911 0.000000 0.000000 0.000000 -2.535123 9.165098 4.761499 -0.886034 9.004705 -0.175931 0.000000 0.000000 0.000000 -20.041838 -8.992520 -23.789639 18.414958 -45.728998 13.007261 0.000000 0.000000 0.000000 -2.535123 9.165098 4.761499 -1.421786 17.159752 27.139263 0.000000 0.000000 0.000000 28.269974 -21.260443 17.587336 37.815346 17.591490 -6.364015 0.000000 0.000000 0.000000 
-4.645671 29.432732 1.488394 0.000000 0.000000 0.000000 -14.741449 30.196755 14.200736 -32.790884 8.571371 -19.222278 9.024209 -22.715577 -0.640597 50.094175 -3.480585 -4.858068 -9.206018 -1.346921 7.442955 0.000000 0.000000 0.000000 -14.741449 30.196755 14.200736 45.664944 -8.587603 1.243719 31.040259 -5.265952 1.873885 13.419116 0.358683 13.800492 -59.564119 4.717305 -3.771067 0.000000 0.000000 0.000000 -14.741449 30.196755 14.200736 11.418090 8.958363 2.712905 -4.411550 10.855678 4.779993 0.000000 0.000000 0.000000 0.000000 0.000000 0.000000 -4.230670 10.966756 4.599278 36.339584 14.636175 -7.439143 -9.823447 17.321114 1.707349 0.000000 0.000000 0.000000 -4.230670 10.966756 4.599278 -1.297740 12.282558 0.433716 0.000000 0.000000 0.000000 -22.919313 -11.459913 -17.495499 24.725058 -35.675950 16.206367 0.000000 0.000000 0.000000 -4.230670 10.966756 4.599278 -0.805829 19.848192 22.901354 0.000000 0.000000 0.000000 30.396913 -23.885948 14.609073 20.588912 19.702799 -0.733697 0.000000 0.000000 0.000000 
